<svg xmlns="http://www.w3.org/2000/svg" width="82" height="40" viewBox="0 0 82 40">
    <path fill="#09C" fill-rule="nonzero" d="M0 9.065V0h82v9.167H0v-.102zm0 30.833v-9.065h82V40H0v-.102zm81.416-22.155c-.458-.615-1.154-.953-1.96-.953-1.508 0-2.77.875-4.223 2.924-1.235 1.745-2.773 3.916-3.899 3.916-.27 0-.47-.09-.614-.276-.347-.448-.344-1.441.01-2.871.4-1.62 1.168-2.75 1.867-2.75.505 0 .69.286.757.462a.949.949 0 0 0-.618.186c-.241.18-.374.459-.374.787 0 .293.102.556.286.742.178.18.418.275.695.275.702 0 1.193-.59 1.193-1.436 0-.538-.2-1.049-.547-1.4-.382-.385-.922-.58-1.605-.58-1.675 0-3.149 1.447-3.879 2.309a44.991 44.991 0 0 1-2.217 2.4c.446-1.498.349-2.898-.28-3.803-.401-.577-.997-.894-1.677-.894-1.034 0-1.722.47-2.073.792l.173-.65H58.9l-.211.871h.984c-.457 1.51-1.71 2.903-2.306 3.504.074-.24.15-.578.186-1.018.09-1.122-.197-2.137-.788-2.784a2.116 2.116 0 0 0-1.596-.715c-1.764 0-3.297 1.08-4.554 3.212l-.379.66c-.814 1.435-1.655 2.918-3.02 2.918-.375 0-.677-.15-.898-.444-.562-.75-.592-2.438-.074-4.302.652-2.35 2.05-4.73 3.46-4.73.238 0 .435.092.6.281.542.618.57 2.098.5 2.679l-.014.11h1.029l1.076-3.945h-.982l-.03.04-.401.556c-.229-.276-.945-.95-2.48-.95-1.752 0-4.828 1.897-5.868 5.97-.504 1.971-.284 3.706.618 4.882.645.839 1.594 1.32 2.607 1.32 1.714 0 3.242-1.316 3.891-2.351.1.709.551 2.352 2.557 2.352 1.799 0 3.902-1.376 6.098-3.982l-1.7 6.72h2.543l.838-3.463c.21.273.7.725 1.66.725 1.357 0 3.613-1.572 5.567-3.858-.27 1.14-.116 2.168.44 2.913.448.599 1.112.942 1.821.942 2.359 0 4.01-1.992 4.567-2.774-.011.725.222 1.41.663 1.918.48.552 1.171.856 1.948.856 2.068 0 3.874-1.455 4.492-3.62.43-1.507.313-2.811-.329-3.673zm-25.88 3.358c-.343 1.347-1.117 2.919-2.17 2.919-.241 0-.417-.08-.539-.242-.332-.444-.262-1.515.21-3.183.53-1.878 1.162-2.79 1.934-2.79.196 0 .353.08.48.243.38.497.416 1.752.085 3.053zm8.247.045c-.407 1.75-1.1 2.754-1.902 2.754-.627 0-.911-.595-.967-.728.059-.252.468-2.031.674-2.852.32-1.28 1.055-2.245 1.708-2.245.198 0 .359.077.477.228.236.3.43 1.037.01 2.843zm16.232-.045c-.342 1.347-1.116 2.919-2.17 2.919-.24 0-.416-.08-.538-.242-.332-.444-.262-1.515.209-3.183.53-1.878 1.162-2.79 1.935-2.79.196 0 .352.08.48.243.38.497.415 1.752.084 3.053zm-40.833-1.63a.926.926 0 0 0 .676.272c.482 0 .998-.307.998-1.17 0-.43-.158-.816-.457-1.12-.436-.442-1.144-.686-1.992-.686-1.7 0-2.876.704-3.314 1.98-.325.95.174 1.962 1.406 2.852l.167.12c.716.514 1.148.823 1.039 1.482-.087.523-.644.898-1.326.892-1.044-.01-1.216-.559-1.244-.748.185-.084.653-.357.653-.949 0-.281-.085-.51-.253-.681-.258-.262-.618-.29-.76-.29-.336 0-.913.12-1.006.928-.013.115 0 .244.007.307-.078.115-.407.556-.944.728a.435.435 0 0 1-.428-.1c-.17-.167-.201-.486-.087-.9.116-.418 1.353-5.496 1.353-5.496h-2.513l-.19.695c-.194-.318-.674-.82-1.776-.82-1.69 0-3.116 1.677-3.824 3.113-.594 1.207-1.701 3.452-2.56 3.452a.247.247 0 0 1-.21-.097c-.093-.122-.207-.483.069-1.526.226-.856 2.023-8.337 2.023-8.337h-4.288l-.232 1.024h1.611l-1.11 4.513c-.82 3.265-2.25 4.423-3.227 4.423-.205 0-.35-.057-.442-.175-.262-.332-.088-1.118.039-1.693.177-.803.743-3.116.848-3.546h1.777l.258-1.043h-1.766l.612-2.537h-.964l-.03.044c-1.267 1.933-1.837 2.557-3.734 2.557h-.076l-.237.978h1.52l-.242 1.176c-.839 3.206-2.442 4.537-3.114 4.537-.33 0-.514-.056-.614-.188-.166-.218-.144-.699.067-1.513.384-1.47 2.008-7.358 2.204-8.069h1.618l.297-.986-3.45-.009c-1.241 0-2.701.107-4.13.895-1.787.987-3.08 2.836-3.842 5.498-.005.019-.477 1.905-.897 3.308-.444 1.48-1.615 1.64-2.098 1.64-.3 0-.621-.149-.88-.407L0 23.633v1.332l.075.018c.449.109.983.163 1.589.163 1.66 0 3.133-1.216 3.89-2.259.617-.848.822-1.605 1.13-2.751l.068-.254h2.496c-.106.362-.42 1.44-.694 2.464-.234.876-.174 1.559.18 2.028.348.462.973.696 1.859.696.897 0 2.517-.223 3.618-1.65.026.348.132.802.462 1.148.314.33.771.497 1.358.497 1.363 0 2.904-.906 3.652-1.83.017.352.106.93.482 1.346.29.321.695.484 1.204.484 1.52 0 2.914-1.235 3.548-2.238.11.668.56 2.238 2.391 2.238 1.172 0 2.038-.75 2.514-1.295.1.414.436 1.295 1.5 1.295 1.121 0 2.243-.763 2.759-1.358.477.938 1.016 1.358 2.843 1.358 1.734 0 3.167-1.199 3.418-2.318.27-1.212-.387-1.704-1.477-2.519l-.133-.099-.225-.165c-.538-.394-1.004-.733-1.004-1.316 0-.634.507-.917 1.008-.917.416 0 .644.166.742.261a1.09 1.09 0 0 0-.347.775c0 .274.098.524.276.705zm-29.647-.655H7.01c.98-3.374 2.147-4.864 3.869-4.936l-1.344 4.936zm20.63 1.845c-.496 1.934-1.087 2.796-1.914 2.796a.526.526 0 0 1-.444-.225c-.36-.48-.346-1.656.037-3.07.536-1.98 1.214-2.246 1.807-2.246.181 0 .335.08.456.24.333.438.355 1.35.058 2.505z"/>
</svg>
